<mxfile host="app.diagrams.net" modified="2024-04-07T09:29:26.991Z" agent="Mozilla/5.0 (Windows NT 10.0; Win64; x64) AppleWebKit/537.36 (KHTML, like Gecko) Chrome/123.0.0.0 Safari/537.36" etag="O5PAgSZW1ceFRaqMwInP" version="24.2.2" type="github">
  <diagram name="第 1 页" id="YbT0ptI3Lqoi58Q_WBzG">
    <mxGraphModel dx="830" dy="453" grid="1" gridSize="10" guides="1" tooltips="1" connect="1" arrows="1" fold="1" page="1" pageScale="1" pageWidth="827" pageHeight="1169" math="0" shadow="0">
      <root>
        <mxCell id="0" />
        <mxCell id="1" parent="0" />
        <mxCell id="xDDUQrFzCG8mRKW3VLgl-1" value="" style="rounded=1;whiteSpace=wrap;html=1;" vertex="1" parent="1">
          <mxGeometry x="260" y="370" width="120" height="255" as="geometry" />
        </mxCell>
        <mxCell id="xDDUQrFzCG8mRKW3VLgl-2" value="用户" style="shape=umlActor;verticalLabelPosition=bottom;verticalAlign=top;html=1;outlineConnect=0;" vertex="1" parent="1">
          <mxGeometry x="160" y="455" width="30" height="60" as="geometry" />
        </mxCell>
        <mxCell id="xDDUQrFzCG8mRKW3VLgl-3" value="用户终端" style="text;html=1;align=center;verticalAlign=middle;whiteSpace=wrap;rounded=0;" vertex="1" parent="1">
          <mxGeometry x="295" y="390" width="50" height="20" as="geometry" />
        </mxCell>
        <mxCell id="xDDUQrFzCG8mRKW3VLgl-4" value="登录" style="ellipse;whiteSpace=wrap;html=1;" vertex="1" parent="1">
          <mxGeometry x="275" y="430" width="90" height="50" as="geometry" />
        </mxCell>
        <mxCell id="xDDUQrFzCG8mRKW3VLgl-5" value="注册" style="ellipse;whiteSpace=wrap;html=1;" vertex="1" parent="1">
          <mxGeometry x="275" y="500" width="90" height="50" as="geometry" />
        </mxCell>
        <mxCell id="xDDUQrFzCG8mRKW3VLgl-6" value="" style="rounded=1;whiteSpace=wrap;html=1;" vertex="1" parent="1">
          <mxGeometry x="430" y="370" width="120" height="255" as="geometry" />
        </mxCell>
        <mxCell id="xDDUQrFzCG8mRKW3VLgl-7" value="服务器" style="text;html=1;align=center;verticalAlign=middle;whiteSpace=wrap;rounded=0;" vertex="1" parent="1">
          <mxGeometry x="465" y="390" width="50" height="20" as="geometry" />
        </mxCell>
        <mxCell id="xDDUQrFzCG8mRKW3VLgl-8" value="验证密码" style="ellipse;whiteSpace=wrap;html=1;" vertex="1" parent="1">
          <mxGeometry x="445" y="410" width="90" height="50" as="geometry" />
        </mxCell>
        <mxCell id="xDDUQrFzCG8mRKW3VLgl-9" value="登录成功返回JWT" style="ellipse;whiteSpace=wrap;html=1;" vertex="1" parent="1">
          <mxGeometry x="445" y="472.5" width="90" height="50" as="geometry" />
        </mxCell>
        <mxCell id="xDDUQrFzCG8mRKW3VLgl-15" value="" style="endArrow=classic;html=1;rounded=0;dashed=1;exitX=1;exitY=0.5;exitDx=0;exitDy=0;entryX=0;entryY=0.5;entryDx=0;entryDy=0;" edge="1" parent="1" source="xDDUQrFzCG8mRKW3VLgl-4" target="xDDUQrFzCG8mRKW3VLgl-8">
          <mxGeometry width="50" height="50" relative="1" as="geometry">
            <mxPoint x="545" y="465" as="sourcePoint" />
            <mxPoint x="610" y="480" as="targetPoint" />
          </mxGeometry>
        </mxCell>
        <mxCell id="xDDUQrFzCG8mRKW3VLgl-16" value="" style="endArrow=classic;html=1;rounded=0;dashed=1;exitX=0;exitY=0.5;exitDx=0;exitDy=0;" edge="1" parent="1" source="xDDUQrFzCG8mRKW3VLgl-9" target="xDDUQrFzCG8mRKW3VLgl-5">
          <mxGeometry width="50" height="50" relative="1" as="geometry">
            <mxPoint x="555" y="475" as="sourcePoint" />
            <mxPoint x="620" y="490" as="targetPoint" />
          </mxGeometry>
        </mxCell>
        <mxCell id="xDDUQrFzCG8mRKW3VLgl-19" value="&amp;lt;&amp;lt;include&amp;gt;&amp;gt;" style="text;html=1;align=center;verticalAlign=middle;whiteSpace=wrap;rounded=0;rotation=25;" vertex="1" parent="1">
          <mxGeometry x="370" y="540" width="60" height="30" as="geometry" />
        </mxCell>
        <mxCell id="xDDUQrFzCG8mRKW3VLgl-20" value="" style="endArrow=classic;html=1;rounded=0;" edge="1" parent="1" source="xDDUQrFzCG8mRKW3VLgl-2" target="xDDUQrFzCG8mRKW3VLgl-4">
          <mxGeometry width="50" height="50" relative="1" as="geometry">
            <mxPoint x="420" y="600" as="sourcePoint" />
            <mxPoint x="470" y="550" as="targetPoint" />
          </mxGeometry>
        </mxCell>
        <mxCell id="xDDUQrFzCG8mRKW3VLgl-21" value="注册验证" style="ellipse;whiteSpace=wrap;html=1;" vertex="1" parent="1">
          <mxGeometry x="445" y="540" width="90" height="50" as="geometry" />
        </mxCell>
        <mxCell id="xDDUQrFzCG8mRKW3VLgl-22" value="" style="endArrow=classic;html=1;rounded=0;dashed=1;exitX=1;exitY=0.5;exitDx=0;exitDy=0;entryX=0;entryY=0.5;entryDx=0;entryDy=0;" edge="1" parent="1" source="xDDUQrFzCG8mRKW3VLgl-5" target="xDDUQrFzCG8mRKW3VLgl-21">
          <mxGeometry width="50" height="50" relative="1" as="geometry">
            <mxPoint x="375" y="465" as="sourcePoint" />
            <mxPoint x="455" y="445" as="targetPoint" />
          </mxGeometry>
        </mxCell>
        <mxCell id="xDDUQrFzCG8mRKW3VLgl-23" value="" style="endArrow=classic;html=1;rounded=0;dashed=1;exitX=0;exitY=0.5;exitDx=0;exitDy=0;entryX=0.98;entryY=0.636;entryDx=0;entryDy=0;entryPerimeter=0;" edge="1" parent="1" source="xDDUQrFzCG8mRKW3VLgl-9" target="xDDUQrFzCG8mRKW3VLgl-4">
          <mxGeometry width="50" height="50" relative="1" as="geometry">
            <mxPoint x="455" y="508" as="sourcePoint" />
            <mxPoint x="372" y="526" as="targetPoint" />
          </mxGeometry>
        </mxCell>
        <mxCell id="xDDUQrFzCG8mRKW3VLgl-24" value="&amp;lt;&amp;lt;include&amp;gt;&amp;gt;" style="text;html=1;align=center;verticalAlign=middle;whiteSpace=wrap;rounded=0;rotation=-15;" vertex="1" parent="1">
          <mxGeometry x="370" y="420" width="60" height="30" as="geometry" />
        </mxCell>
        <mxCell id="xDDUQrFzCG8mRKW3VLgl-25" value="&amp;lt;&amp;lt;extend&lt;span style=&quot;color: rgba(0, 0, 0, 0); font-family: monospace; font-size: 0px; text-align: start; text-wrap: nowrap;&quot;&gt;%3CmxGraphModel%3E%3Croot%3E%3CmxCell%20id%3D%220%22%2F%3E%3CmxCell%20id%3D%221%22%20parent%3D%220%22%2F%3E%3CmxCell%20id%3D%222%22%20value%3D%22%26amp%3Blt%3B%26amp%3Blt%3Binclude%26amp%3Bgt%3B%26amp%3Bgt%3B%22%20style%3D%22text%3Bhtml%3D1%3Balign%3Dcenter%3BverticalAlign%3Dmiddle%3BwhiteSpace%3Dwrap%3Brounded%3D0%3Brotation%3D25%3B%22%20vertex%3D%221%22%20parent%3D%221%22%3E%3CmxGeometry%20x%3D%22370%22%20y%3D%22540%22%20width%3D%2260%22%20height%3D%2230%22%20as%3D%22geometry%22%2F%3E%3C%2FmxCell%3E%3C%2Froot%3E%3C%2FmxGraphModel%3E&lt;/span&gt;&amp;gt;&amp;gt;" style="text;html=1;align=center;verticalAlign=middle;whiteSpace=wrap;rounded=0;rotation=25;" vertex="1" parent="1">
          <mxGeometry x="380" y="460" width="60" height="30" as="geometry" />
        </mxCell>
        <mxCell id="xDDUQrFzCG8mRKW3VLgl-26" value="&amp;lt;&amp;lt;extend&lt;span style=&quot;color: rgba(0, 0, 0, 0); font-family: monospace; font-size: 0px; text-align: start; text-wrap: nowrap;&quot;&gt;%3CmxGraphModel%3E%3Croot%3E%3CmxCell%20id%3D%220%22%2F%3E%3CmxCell%20id%3D%221%22%20parent%3D%220%22%2F%3E%3CmxCell%20id%3D%222%22%20value%3D%22%26amp%3Blt%3B%26amp%3Blt%3Binclude%26amp%3Bgt%3B%26amp%3Bgt%3B%22%20style%3D%22text%3Bhtml%3D1%3Balign%3Dcenter%3BverticalAlign%3Dmiddle%3BwhiteSpace%3Dwrap%3Brounded%3D0%3Brotation%3D25%3B%22%20vertex%3D%221%22%20parent%3D%221%22%3E%3CmxGeometry%20x%3D%22370%22%20y%3D%22540%22%20width%3D%2260%22%20height%3D%2230%22%20as%3D%22geometry%22%2F%3E%3C%2FmxCell%3E%3C%2Froot%3E%3C%2FmxGraphModel%3E&lt;/span&gt;&amp;gt;&amp;gt;" style="text;html=1;align=center;verticalAlign=middle;whiteSpace=wrap;rounded=0;rotation=-15;" vertex="1" parent="1">
          <mxGeometry x="384" y="500" width="60" height="30" as="geometry" />
        </mxCell>
      </root>
    </mxGraphModel>
  </diagram>
</mxfile>
